#format: frame checksums
#version: 1
#hash: MD5
#tb 0: 1/25
#stream#, dts,        pts, duration,     size, hash
0,          0,          0,        1,   191800, 0e1d199f87997ba47e98596b6087d7d4
0,          1,          1,        1,   191820, b35714d0635214095ac06d35da00ed32
0,          2,          2,        1,   191668, 8336829e44f5b90034e5da33dcd27f1f
0,          3,          3,        1,   191696, ebff701893f27b026fe6fec4a1cbd90b
0,          4,          4,        1,   191976, c2729ecde4337a51192da71b0ef36e7d
0,          5,          5,        1,   191760, e2ef2db5ef30019d5fd24cd32c696318
0,          6,          6,        1,   191708, 638eb1c1b68bc9f4cc315ebdd3bd86f5
0,          7,          7,        1,   191688, aca858d2cce189eb60012a33ea74d10b
0,          8,          8,        1,   191576, aa933dea9aac9b61fea004747e3b8e6a
0,          9,          9,        1,   191544, 6c410ec9e2492d464d439a58e6e338c3
0,         10,         10,        1,   191472, 7c7661ff35671b3912b2b216bc6df478
0,         11,         11,        1,   191280, 73c1ff53a0cd5c65eb2ae75a45efbf72
0,         12,         12,        1,   191700, 201b0b4834878513e6e13bd9f5977a28
0,         13,         13,        1,   191424, 0affff549b2da09c7852c5e8dbd1c84a
0,         14,         14,        1,   191420, e0e80adf520953c4bc4033efc77b9092
0,         15,         15,        1,   191408, 4fa22efbf2101b7f6bfffae227ce1d23
0,         16,         16,        1,   191500, fef8df893234b38be36803d5f5656e16
0,         17,         17,        1,   191580, 3585b500a77344fd87f8f18e3816f1a8
0,         18,         18,        1,   191608, 419189483180612b72491dab5864c6e7
0,         19,         19,        1,   191616, 197fa32c8a164eeea73defb7422657d1
0,         20,         20,        1,   191596, a660a6c630f7e55c3ca2f9a37d599223
0,         21,         21,        1,   191660, d98445b0387c3d54034f8defe1d03ea6
0,         22,         22,        1,   191540, ef4522aa762b82d1c715805a779c7c1e
0,         23,         23,        1,   191576, 32d109d2040c69b3944471b0bd399a65
0,         24,         24,        1,   191636, 58e2f3a01de4175ba7f915e2d065ba36
0,         25,         25,        1,   191524, 0989a64e78613cfc26124e195cfc0cde
0,         26,         26,        1,   191640, b9e252a5c4583736a8ba248d15c429aa
0,         27,         27,        1,   191800, 1541cccc66cb63d3e1ef675a16a1258e
0,         28,         28,        1,   192028, 5dada6bf987738caebca210067d13c39
0,         29,         29,        1,   191964, 8d55bb4a1464ac74364d4b1e416d4a0c
0,         30,         30,        1,   191736, 88c279b9f3e96485f85dbca09177fe26
0,         31,         31,        1,   191788, aa75795116428edb57dea8b54527e13b
0,         32,         32,        1,   191636, aa45e4ec1fcc038ea2e48046e5047417
0,         33,         33,        1,   191400, 7b2861b3ca8bfcdca010d859c0595e03
0,         34,         34,        1,   191332, 956acfcc00661d9a9ba7575e8c1a011b
0,         35,         35,        1,   191548, 3b5b7c3b9a6a5ebe10f178077a5fea4d
0,         36,         36,        1,   191852, 835219e1689946f3e26457ffce197181
0,         37,         37,        1,   191828, f67a1e4640472287baf194c02f24dc29
0,         38,         38,        1,   191812, 978f44d430859044350ea20913ae4194
0,         39,         39,        1,   191700, 92e21c9ded61f69f793c649eece071c4
0,         40,         40,        1,   191812, 0a460bc35daad68e8042917f26dac542
0,         41,         41,        1,   191548, 7c7a65b9257f9b4439002c5c414c401c
0,         42,         42,        1,   191544, b03d903c46536dc336461827fd4d34db
0,         43,         43,        1,   191700, 75b391d84b120e63ec229fcb48808d19
0,         44,         44,        1,   191780, c953dcd42a8aa19eb4d4be0149894bbe
0,         45,         45,        1,   191952, 64be44b2e21f8301f4234e32a10cb1c9
0,         46,         46,        1,   191916, a6c805f651f3f57a84681b1aab6fe3ef
0,         47,         47,        1,   191784, 9cc8db3cb63a026645f634aabc89c37b
0,         48,         48,        1,   191716, e2f0c7543b3484a726411eac4e9a79cd
0,         49,         49,        1,   191728, 50277180199917d1259e0cad42f52d4c
